# xmcd
#
# Track frame offsets:
#	150
#	12048
#	24950
#	41403
#	56021
#	65819
#	84391
#	95614
#	102408
#	114721
#	127109
#	142152
#	156068
#	174816
#	184711
#	198045
#	207195
#	219717
#	229530
#	241419
#
# Disc length: 3370 seconds
#
# Revision: 1
# Processed by: cddbd v1.5.2PL0 Copyright (c) Steve Scherf et al.
# Submitted via: audiograbber 1.83.01
#
DISCID=110d2814
DTITLE=Various Artist - 100 Golden Country Hits
DYEAR=1900
DGENRE=Country
TTITLE0=Don Williams - Tulsa Time
TTITLE1=Anne Murray - Path Of Victory
TTITLE2=Crystal Gayle - When I Dream
TTITLE3=Lee Hazlewood - These Boots Are Made For Walking
TTITLE4=Ersel Hickey - Blue Birds Over the Mountain
TTITLE5=Kris Kristofferson - A Moment Of Forever
TTITLE6=Patsy Cline - Just Out of Reach
TTITLE7=Waylon Jennings - It´s So Easy (To Fall in Love)
TTITLE8=Barbara Mandrell - Midnight Oil
TTITLE9=Wynn Stewart - Wishful Thinking
TTITLE10=Merle Haggard - Today I Started Loving You Again
TTITLE11=Charley Pride - What´s Another Year
TTITLE12=Marty Robbins - El Paso
TTITLE13=Hank Locklin - Please Help Me, I´m Falling
TTITLE14=The OAK Ridge Boys - Hide Thou Me
TTITLE15=Jim Reeves - I Won´t Forget You
TTITLE16=Claude King - Wolverton Mountain
TTITLE17=Ned Miller - From A Jack To A King
TTITLE18=Skeeter Davis - The End Of The World
TTITLE19=Don Williams and The Pozo Sec - Storybook Children
EXTD=
EXTT0=
EXTT1=
EXTT2=
EXTT3=
EXTT4=
EXTT5=
EXTT6=
EXTT7=
EXTT8=
EXTT9=
EXTT10=
EXTT11=
EXTT12=
EXTT13=
EXTT14=
EXTT15=
EXTT16=
EXTT17=
EXTT18=
EXTT19=
PLAYORDER=
